<?xml version="1.0" encoding="utf-8"?>
<!-- Generator: Adobe Illustrator 24.1.1, SVG Export Plug-In . SVG Version: 6.00 Build 0)  -->
<svg version="1.1" id="Layer_1" xmlns="http://www.w3.org/2000/svg" xmlns:xlink="http://www.w3.org/1999/xlink" x="0px" y="0px"
	 viewBox="0 0 512 512" style="enable-background:new 0 0 512 512;" xml:space="preserve">
<style type="text/css">
	.st0{fill:#25B7D3;}
	.st1{fill:#6FDAF1;}
	.st2{fill:#F0F1F1;}
	.st3{fill:#FFFFFF;}
	.st4{fill:#21B2D1;}
</style>
<g id="XMLID_1_">
	<circle id="XMLID_3_" class="st0" cx="256" cy="256" r="256"/>
	<path id="XMLID_4_" class="st1" d="M181.2,311.9c0,10.2,8.7,18.9,18.9,18.9h111.9l55.9,55.9v-55.9h18.9c10.2,0,18.9-8.7,18.9-18.9
		V163.1c0-10.2-8.7-18.9-18.9-18.9H200.1c-10.2,0-18.9,8.7-18.9,18.9V311.9z"/>
	<path id="XMLID_5_" class="st2" d="M330.8,274.9c0,10.2-8.7,18.9-18.9,18.9H200.1l-55.9,55.9v-55.9h-18.9
		c-10.2,0-18.9-8.7-18.9-18.9V126c0-10.2,8.7-18.9,18.9-18.9h185.9c10.2,0,18.9,8.7,18.9,18.9v148.9H330.8z"/>
	<path id="XMLID_6_" class="st3" d="M327.7,115.8c-3.2-4.7-8.7-8.7-15.8-8.7H126c-10.2,0-18.9,8.7-18.9,18.9v148.9
		c0,10.2,8.7,18.9,18.9,18.9h18.9v5.5L327.7,115.8z"/>
	<circle id="XMLID_7_" class="st4" cx="163.1" cy="200.1" r="18.9"/>
	<circle id="XMLID_8_" class="st4" cx="219" cy="200.1" r="18.9"/>
	<circle id="XMLID_9_" class="st4" cx="274.9" cy="200.1" r="18.9"/>
</g>
</svg>
