<svg width="64" height="48" viewBox="0 0 64 48" fill="none" xmlns="http://www.w3.org/2000/svg">
<path d="M49.3016 4.29999L31.9906 17.4927L14.2838 4.29999V4.30355L14.3052 4.32138V22.7947L31.7909 36.2727L49.3016 23.3153V4.29999Z" fill="#EA4335"/>
<path d="M53.8477 1.09097L49.3016 4.30001V23.3153L63.6068 12.59V6.12916C63.6068 6.12916 61.8703 -3.09861 53.8477 1.09097Z" fill="#FBBC05"/>
<path d="M49.3016 23.3153V47.9786H60.2658C60.2658 47.9786 63.3857 47.6648 63.6103 44.1919V12.59L49.3016 23.3153Z" fill="#34A853"/>
<path d="M14.3052 48V22.7948L14.2838 22.777L14.3052 48Z" fill="#C5221F"/>
<path d="M14.2838 4.30356L9.76261 1.11235C1.74001 -3.07723 0 6.14697 0 6.14697V12.6078L14.2838 22.7769V4.30356Z" fill="#C5221F"/>
<path d="M14.2838 4.30353V22.7769L14.3052 22.7947V4.32136L14.2838 4.30353Z" fill="#C5221F"/>
<path d="M0 12.6114V44.2133C0.221067 47.6897 3.34453 48 3.34453 48H14.3088L14.2838 22.7769L0 12.6114Z" fill="#4285F4"/>
</svg>
